<svg xmlns="http://www.w3.org/2000/svg" width="275" height="29.292" viewBox="0 0 275 29.292"><defs><style>.a{fill:#fff;}.b{fill:#74c061;}</style></defs><g transform="translate(-301 -34.854)"><path class="a" d="M307.467,39.848H301V35.429h17.926v4.418h-6.464V58.094h-4.994Z"/><path class="a" d="M322.6,35.43h4.994V43.88h9.7V35.43h4.994V58.094h-4.994V48.3h-9.7v9.8H322.6Z"/><path class="a" d="M392.925,49.354c0,5.346-3.266,9.316-9.54,9.316-6.306,0-9.572-3.97-9.572-9.316V35.43h4.994V49.164a4.574,4.574,0,1,0,9.124,0V35.43h4.994Z"/><path class="a" d="M423.215,35.43h4.994V43.88h9.7V35.43H442.9V58.094h-4.994V48.3h-9.7v9.8h-4.994Z"/><path class="a" d="M453.041,39.848h-6.467V35.429H464.5v4.418h-6.464V58.094h-4.994Z"/><path class="a" d="M468.1,35.43h15.207v4.609H473.1v4.611h9.444v4.609H473.1v8.836H468.1Z"/><path class="a" d="M557.16,49.354c0,5.346-3.266,9.316-9.54,9.316-6.3,0-9.572-3.97-9.572-9.316V35.43h4.994V49.164a4.574,4.574,0,1,0,9.124,0V35.43h4.994Z"/><path class="a" d="M572.544,40.969a4.835,4.835,0,0,0-3.618-1.507c-1.408,0-3.363.641-3.363,2.338,0,4.129,10.437,1.473,10.437,9.413,0,5.056-4.066,7.458-8.74,7.458a10.776,10.776,0,0,1-7.619-2.849l3.555-3.9a5.55,5.55,0,0,0,4.354,2.145c1.632,0,3.456-.769,3.456-2.369,0-4.164-10.627-1.921-10.627-9.479,0-4.832,4.194-7.36,8.644-7.36a10.247,10.247,0,0,1,6.946,2.369Z"/><path class="a" d="M358.049,53.784a6.965,6.965,0,1,1,6.965-6.965,6.965,6.965,0,0,1-6.965,6.965m0-18.817A11.852,11.852,0,1,0,369.9,46.819a11.853,11.853,0,0,0-11.852-11.852"/><path class="b" d="M498.348,53.784a6.965,6.965,0,1,1,6.965-6.965,6.965,6.965,0,0,1-6.965,6.965m0-18.817A11.852,11.852,0,1,0,510.2,46.819a11.852,11.852,0,0,0-11.851-11.852"/><path class="b" d="M511.274,60.983a3.163,3.163,0,1,0-3.163,3.163,3.162,3.162,0,0,0,3.163-3.163"/><path class="a" d="M409.1,34.967a12.174,12.174,0,0,1,8.858,3.707l-3.412,2.986a7.634,7.634,0,0,0-5.446-2.1,7.2,7.2,0,1,0,0,14.4,7.352,7.352,0,0,0,4.987-1.771V49.108h-6V44.646h10.729V53.9a12.1,12.1,0,0,1-9.712,4.66c-6.792,0-12.3-4.955-12.3-11.779s5.512-11.811,12.3-11.811"/><path class="a" d="M525.435,34.967a12.2,12.2,0,0,1,9.3,4.286l-3.462,2.933a7.8,7.8,0,0,0-5.835-2.6,7.236,7.236,0,1,0,0,14.472,7.781,7.781,0,0,0,5.868-2.637l3.462,2.934a12.185,12.185,0,0,1-9.33,4.319c-6.824,0-12.362-4.978-12.362-11.835s5.538-11.867,12.362-11.867"/></g></svg>